<svg id="Huge-icon_education_bulk_teacher_01" data-name="Huge-icon/education/bulk/teacher 01" xmlns="http://www.w3.org/2000/svg" width="20" height="18" viewBox="0 0 20 18">
  <g id="teacher">
    <path id="Vector_1465" data-name="Vector 1465" d="M0,2v9a2,2,0,0,0,2,2H13a2,2,0,0,0,2-2V2a2,2,0,0,0-2-2H2A2,2,0,0,0,0,2Z" transform="translate(5)" fill="#d1d1d1" opacity="0.4"/>
    <path id="Rectangle_551" data-name="Rectangle 551" d="M0,2A2,2,0,0,1,2,0h.172A2,2,0,0,1,3.586.586a2,2,0,0,0,2.828,0A2,2,0,0,1,7.828,0H8a2,2,0,0,1,2,2V3A2,2,0,0,1,8,5H2A2,2,0,0,1,0,3Z" transform="translate(0 13)" fill="#d1d1d1"/>
    <path id="Ellipse_571" data-name="Ellipse 571" d="M5,2.5A2.5,2.5,0,1,1,2.5,0,2.5,2.5,0,0,1,5,2.5Z" transform="translate(2.5 7)" fill="#d1d1d1"/>
    <path id="Vector_1466_Stroke_" data-name="Vector 1466 (Stroke)" d="M0,.75A.75.75,0,0,1,.75,0h7a.75.75,0,0,1,0,1.5h-7A.75.75,0,0,1,0,.75Z" transform="translate(8.25 3.75)" fill="#d1d1d1"/>
    <path id="Vector_1467_Stroke_" data-name="Vector 1467 (Stroke)" d="M0,.75A.75.75,0,0,1,.75,0h4a.75.75,0,0,1,0,1.5h-4A.75.75,0,0,1,0,.75Z" transform="translate(11.25 7.75)" fill="#d1d1d1"/>
  </g>
</svg>
