<svg id="Huge-icon_education_bulk_book_02" data-name="Huge-icon/education/bulk/book 02" xmlns="http://www.w3.org/2000/svg" width="20" height="16" viewBox="0 0 20 16">
  <g id="book" transform="translate(0 0)">
    <path id="Vector_1535" data-name="Vector 1535" d="M20,9V3a3,3,0,0,0-3-3H3A3,3,0,0,0,0,3V9a3,3,0,0,0,3,3H17A3,3,0,0,0,20,9Z" transform="translate(0 4)" fill="#d1d1d1" opacity="0.4"/>
    <path id="Subtract" d="M6.25,1.445A12.567,12.567,0,0,0,1.4.008,1.267,1.267,0,0,0,0,1.29V8.8a1.514,1.514,0,0,0,1.4,1.448,12.065,12.065,0,0,1,5.126,1.609.871.871,0,0,0,.956,0A12.065,12.065,0,0,1,12.6,10.248,1.514,1.514,0,0,0,14,8.8V1.29A1.267,1.267,0,0,0,12.6.008,12.567,12.567,0,0,0,7.75,1.445V11.685q-.139.083-.272.172a.871.871,0,0,1-.956,0q-.133-.089-.272-.172Z" transform="translate(3 0)" fill="#d1d1d1"/>
  </g>
</svg>
