<svg xmlns="http://www.w3.org/2000/svg" xmlns:xlink="http://www.w3.org/1999/xlink" width="103.8" height="103.8" viewBox="0 0 103.8 103.8">
  <defs>
    <filter id="Rectangle_497" x="0" y="0" width="103.8" height="103.8" filterUnits="userSpaceOnUse">
      <feOffset dy="3" input="SourceAlpha"/>
      <feGaussianBlur stdDeviation="12.5" result="blur"/>
      <feFlood flood-color="#21383b" flood-opacity="0.078"/>
      <feComposite operator="in" in2="blur"/>
      <feComposite in="SourceGraphic"/>
    </filter>
  </defs>
  <g id="Huge-icon_notes_and_task_bulk_task_01" data-name="Huge-icon/notes and task/bulk/task 01" transform="translate(37.5 31.3)">
    <g id="task">
      <g transform="matrix(1, 0, 0, 1, -37.5, -31.3)" filter="url(#Rectangle_497)">
        <path id="Rectangle_497-2" data-name="Rectangle 497" d="M28.8,22.4V6.4A6.4,6.4,0,0,0,22.4,0H6.4A6.4,6.4,0,0,0,0,6.4v16a6.4,6.4,0,0,0,6.4,6.4h16A6.4,6.4,0,0,0,28.8,22.4Z" transform="translate(37.5 34.5)" fill="#fff"/>
      </g>
      <rect id="Rectangle_476" data-name="Rectangle 476" width="12.8" height="6.4" rx="3.2" transform="translate(8)" fill="#21383b"/>
      <path id="Vector_1275_Stroke_" data-name="Vector 1275 (Stroke)" d="M0,1.2A1.2,1.2,0,0,1,1.2,0H7.6a1.2,1.2,0,1,1,0,2.4H1.2A1.2,1.2,0,0,1,0,1.2Z" transform="translate(13.2 11.6)" fill="#e2b332"/>
      <path id="Vector_1276_Stroke_" data-name="Vector 1276 (Stroke)" d="M0,1.2A1.2,1.2,0,0,1,1.2,0H7.6a1.2,1.2,0,1,1,0,2.4H1.2A1.2,1.2,0,0,1,0,1.2Z" transform="translate(13.2 18)" fill="#e2b332"/>
      <path id="Vector_1277_Stroke_" data-name="Vector 1277 (Stroke)" d="M0,1.2A1.2,1.2,0,0,1,1.2,0H7.6a1.2,1.2,0,1,1,0,2.4H1.2A1.2,1.2,0,0,1,0,1.2Z" transform="translate(13.2 24.4)" fill="#e2b332"/>
      <path id="Ellipse_1099" data-name="Ellipse 1099" d="M3.2,1.6A1.6,1.6,0,1,1,1.6,0,1.6,1.6,0,0,1,3.2,1.6Z" transform="translate(7.2 11.2)" fill="#e2b332"/>
      <path id="Ellipse_1100" data-name="Ellipse 1100" d="M3.2,1.6A1.6,1.6,0,1,1,1.6,0,1.6,1.6,0,0,1,3.2,1.6Z" transform="translate(7.2 17.6)" fill="#e2b332"/>
      <path id="Ellipse_1101" data-name="Ellipse 1101" d="M3.2,1.6A1.6,1.6,0,1,1,1.6,0,1.6,1.6,0,0,1,3.2,1.6Z" transform="translate(7.2 24)" fill="#e2b332"/>
    </g>
  </g>
</svg>
