<svg id="Huge-icon_smart_house_bulk_sensor" data-name="Huge-icon/smart house/bulk/sensor" xmlns="http://www.w3.org/2000/svg" width="23.5" height="17.642" viewBox="0 0 23.5 17.642">
  <g id="sensor">
    <path id="Ellipse_520" data-name="Ellipse 520" d="M4.372,2.256A2.222,2.222,0,0,1,2.186,4.511,2.222,2.222,0,0,1,0,2.256,2.222,2.222,0,0,1,2.186,0,2.222,2.222,0,0,1,4.372,2.256Z" transform="translate(9.564 6.566)" fill="#d1d1d1"/>
    <path id="Vector_Stroke_" data-name="Vector (Stroke)" d="M4.6.248a.865.865,0,0,1,0,1.2A10.669,10.669,0,0,0,4.6,16.2a.865.865,0,0,1,0,1.2.8.8,0,0,1-1.159,0A12.286,12.286,0,0,1,0,8.821,12.286,12.286,0,0,1,3.441.248.8.8,0,0,1,4.6.248Zm14.3,0a.8.8,0,0,1,1.159,0A12.286,12.286,0,0,1,23.5,8.821a12.286,12.286,0,0,1-3.441,8.573.8.8,0,0,1-1.159,0,.865.865,0,0,1,0-1.2,10.669,10.669,0,0,0,0-14.754A.865.865,0,0,1,18.9.248ZM7.692,3.438a.865.865,0,0,1,0,1.2,6.056,6.056,0,0,0,0,8.374.865.865,0,0,1,0,1.2.8.8,0,0,1-1.159,0,7.786,7.786,0,0,1,0-10.766A.8.8,0,0,1,7.692,3.438Zm8.115,0a.8.8,0,0,1,1.159,0,7.786,7.786,0,0,1,0,10.766.8.8,0,0,1-1.159,0,.865.865,0,0,1,0-1.2,6.056,6.056,0,0,0,0-8.374A.865.865,0,0,1,15.808,3.438Z" transform="translate(0 0)" fill="#d1d1d1" fill-rule="evenodd" opacity="0.4"/>
  </g>
</svg>
