<svg xmlns="http://www.w3.org/2000/svg" xmlns:xlink="http://www.w3.org/1999/xlink" width="32" height="32" viewBox="0 0 32 32">
  <defs>
    <filter id="Ellipse_443" x="0" y="0" width="32" height="32" filterUnits="userSpaceOnUse">
      <feOffset dy="3" input="SourceAlpha"/>
      <feGaussianBlur stdDeviation="3" result="blur"/>
      <feFlood flood-opacity="0.078"/>
      <feComposite operator="in" in2="blur"/>
      <feComposite in="SourceGraphic"/>
    </filter>
  </defs>
  <g id="Huge-icon_time_and_date_bulk_time-oclock" data-name="Huge-icon/time and date/bulk/time-oclock" transform="translate(9 6)">
    <g id="time_oclock" data-name="time oclock">
      <g transform="matrix(1, 0, 0, 1, -9, -6)" filter="url(#Ellipse_443)">
        <path id="Ellipse_443-2" data-name="Ellipse 443" d="M14,7A7,7,0,1,1,7,0,7,7,0,0,1,14,7Z" transform="translate(9 6)" fill="#fff"/>
      </g>
      <path id="Ellipse_444" data-name="Ellipse 444" d="M2.8,1.4A1.4,1.4,0,1,1,1.4,0,1.4,1.4,0,0,1,2.8,1.4Z" transform="translate(5.6 5.6)" fill="#e2b332"/>
      <path id="Vector_1134_Stroke_" data-name="Vector 1134 (Stroke)" d="M.525,4.2a.525.525,0,0,0,.525-.525V.525A.525.525,0,0,0,0,.525v3.15A.525.525,0,0,0,.525,4.2Z" transform="translate(7.525 6.475) rotate(180)" fill="#e2b332"/>
    </g>
  </g>
</svg>
