<svg id="Huge-icon_menu_bulk_menu-line-horizontal" data-name="Huge-icon/menu/bulk/menu-line-horizontal" xmlns="http://www.w3.org/2000/svg" width="29.053" height="24" viewBox="0 0 29.053 24">
  <g id="menu_line_horizontal" data-name="menu line horizontal">
    <path id="Vector_2465_Stroke_" data-name="Vector 2465 (Stroke)" d="M0,1.895A1.9,1.9,0,0,1,1.895,0H27.158a1.895,1.895,0,1,1,0,3.789H1.895A1.9,1.9,0,0,1,0,1.895Z" fill="#1f3639" opacity="0.4"/>
    <path id="Vector_2466_Stroke_" data-name="Vector 2466 (Stroke)" d="M0,1.895A1.9,1.9,0,0,1,1.895,0H27.158a1.895,1.895,0,1,1,0,3.789H1.895A1.9,1.9,0,0,1,0,1.895Z" transform="translate(0 10.105)" fill="#1f3639"/>
    <path id="Vector_2467_Stroke_" data-name="Vector 2467 (Stroke)" d="M0,1.895A1.9,1.9,0,0,1,1.895,0H27.158a1.895,1.895,0,1,1,0,3.789H1.895A1.9,1.9,0,0,1,0,1.895Z" transform="translate(0 20.211)" fill="#1f3639" opacity="0.4"/>
  </g>
</svg>
