<svg id="notification" xmlns="http://www.w3.org/2000/svg" width="21.333" height="24" viewBox="0 0 21.333 24">
  <path id="Ellipse_248" data-name="Ellipse 248" d="M4.028,2.685A4.264,4.264,0,0,0,8.055,0H0A4.264,4.264,0,0,0,4.028,2.685Z" transform="translate(6.639 21.315)" fill="#20373a"/>
  <path id="Subtract" d="M12.919,1A3.027,3.027,0,0,0,7.64,3.024v.138a7.569,7.569,0,0,0-5.293,6.13l-.6,5.249A4.868,4.868,0,0,1,.6,17.148c-1.463,1.717-.071,4.167,2.367,4.167H18.37c2.438,0,3.829-2.45,2.367-4.167a4.869,4.869,0,0,1-1.154-2.607l-.6-5.249q-.012-.11-.029-.219A5.331,5.331,0,0,1,12.919,1Z" transform="translate(0)" fill="#bcbcbc" opacity="0.4"/>
  <path id="Ellipse_247" data-name="Ellipse 247" d="M8.055,4.028A4.028,4.028,0,1,1,4.028,0,4.028,4.028,0,0,1,8.055,4.028Z" transform="translate(13.278)" fill="#e2b332"/>
</svg>
